<svg aria-hidden="true" style="position: absolute; width: 0; height: 0; overflow: hidden;" version="1.1" xmlns="http://www.w3.org/2000/svg" xmlns:xlink="http://www.w3.org/1999/xlink">
<defs>
<symbol id="icon-ukanian" viewBox="0 0 24 24" fill="none" stroke-width="2" stroke-linecap="round" stroke-linejoin="round">
<path d="M12 7v14"></path>
<path d="M3 18a1 1 0 0 1-1-1V4a1 1 0 0 1 1-1h5a4 4 0 0 1 4 4 4 4 0 0 1 4-4h5a1 1 0 0 1 1 1v13a1 1 0 0 1-1 1h-6a3 3 0 0 0-3 3 3 3 0 0 0-3-3z"></path>
</symbol>
<symbol id="icon-english" viewBox="0 0 24 24">
<path d="m5 8 6 6"></path>
<path d="m4 14 6-6 2-3"></path>
<path d="M2 5h12"></path>
<path d="M7 2h1"></path>
<path d="m22 22-5-10-5 10"></path>
<path d="M14 18h6"></path>
</symbol>
<symbol id="icon-math" viewBox="0 0 24 24" fill="none" stroke-width="2" stroke-linecap="round" stroke-linejoin="round">
<rect width="16" height="20" x="4" y="2" rx="2"></rect>
<line x1="8" x2="16" y1="6" y2="6"></line>
<line x1="16" x2="16" y1="14" y2="18"></line>
<path d="M16 10h.01"></path>
<path d="M12 10h.01"></path>
<path d="M8 10h.01"></path>
<path d="M12 14h.01"></path>
<path d="M8 14h.01"></path>
<path d="M12 18h.01"></path>
<path d="M8 18h.01"></path>
</symbol>
<symbol id="icon-physics" viewBox="0 0 24 24">
<path d="M4 14a1 1 0 0 1-.78-1.63l9.9-10.2a.5.5 0 0 1 .86.46l-1.92 6.02A1 1 0 0 0 13 10h7a1 1 0 0 1 .78 1.63l-9.9 10.2a.5.5 0 0 1-.86-.46l1.92-6.02A1 1 0 0 0 11 14z"></path>
</symbol>
<symbol id="icon-literatyre" viewBox="0 0 24 24">
<path d="M21.54 15H17a2 2 0 0 0-2 2v4.54"></path>
<path d="M7 3.34V5a3 3 0 0 0 3 3a2 2 0 0 1 2 2c0 1.1.9 2 2 2a2 2 0 0 0 2-2c0-1.1.9-2 2-2h3.17"></path>
<path d="M11 21.95V18a2 2 0 0 0-2-2a2 2 0 0 1-2-2v-1a2 2 0 0 0-2-2H2.05"></path>
<circle cx="12" cy="12" r="10"></circle>
</symbol>
<symbol id="icon-geography" viewBox="0 0 24 24">
<path d="M14.106 5.553a2 2 0 0 0 1.788 0l3.659-1.83A1 1 0 0 1 21 4.619v12.764a1 1 0 0 1-.553.894l-4.553 2.277a2 2 0 0 1-1.788 0l-4.212-2.106a2 2 0 0 0-1.788 0l-3.659 1.83A1 1 0 0 1 3 19.381V6.618a1 1 0 0 1 .553-.894l4.553-2.277a2 2 0 0 1 1.788 0z"></path>
<path d="M15 5.764v15"></path>
<path d="M9 3.236v15"></path>
</symbol>
<symbol id="icon-history" viewBox="0 0 24 24">
<path d="M10 18v-7"></path>
<path d="M11.12 2.198a2 2 0 0 1 1.76.006l7.866 3.847c.476.233.31.949-.22.949H3.474c-.53 0-.695-.716-.22-.949z"></path>
<path d="M14 18v-7"></path>
<path d="M18 18v-7"></path>
<path d="M3 22h18"></path>
<path d="M6 18v-7"></path>
</symbol>
<symbol id="icon-biology" viewBox="0 0 24 24">
<path d="M11 20A7 7 0 0 1 9.8 6.1C15.5 5 17 4.48 19 2c1 2 2 4.18 2 8 0 5.5-4.78 10-10 10Z"></path>
<path d="M2 21c0-3 1.85-5.36 5.08-6C9.5 14.52 12 13 13 12"></path>
</symbol>
<symbol id="icon-chemistry" viewBox="0 0 24 24">
<path d="M14 2v6a2 2 0 0 0 .245.96l5.51 10.08A2 2 0 0 1 18 22H6a2 2 0 0 1-1.755-2.96l5.51-10.08A2 2 0 0 0 10 8V2"></path>
<path d="M6.453 15h11.094"></path>
<path d="M8.5 2h7"></path>
</symbol>
<symbol id="icon-logo" viewBox="0 0 24 24" fill="none" stroke-width="2" stroke-linecap="round" stroke-linejoin="round">
<path d="M21.42 10.922a1 1 0 0 0-.019-1.838L12.83 5.18a2 2 0 0 0-1.66 0L2.6 9.08a1 1 0 0 0 0 1.832l8.57 3.908a2 2 0 0 0 1.66 0z"></path>
<path d="M22 10v6"></path>
<path d="M6 12.5V16a6 3 0 0 0 12 0v-3.5"></path>
</symbol>
<symbol id="icon-search" viewBox="0 0 24 24" fill="none" stroke="#8c7b9d" stroke-width="2" stroke-linecap="round" stroke-linejoin="round">
<path d="m21 21-4.34-4.34"></path>
<circle cx="11" cy="11" r="8"></circle>
</symbol>
<symbol id="icon-star" viewBox="0 0 24 24" fill="none" stroke-width="2" stroke-linecap="round" stroke-linejoin="round">
<path d="M11.525 2.295a.53.53 0 0 1 .95 0l2.31 4.679a2.123 2.123 0 0 0 1.595 1.16l5.166.756a.53.53 0 0 1 .294.904l-3.736 3.638a2.123 2.123 0 0 0-.611 1.878l.882 5.14a.53.53 0 0 1-.771.56l-4.618-2.428a2.122 2.122 0 0 0-1.973 0L6.396 21.01a.53.53 0 0 1-.77-.56l.881-5.139a2.122 2.122 0 0 0-.611-1.879L2.16 9.795a.53.53 0 0 1 .294-.906l5.165-.755a2.122 2.122 0 0 0 1.597-1.16z"></path>
</symbol>
<symbol id="icon-people" viewBox="0 0 24 24" fill="none" stroke-width="2" stroke-linecap="round" stroke-linejoin="round">
<path d="M16 21v-2a4 4 0 0 0-4-4H6a4 4 0 0 0-4 4v2"></path>
<path d="M16 3.128a4 4 0 0 1 0 7.744"></path>
<path d="M22 21v-2a4 4 0 0 0-3-3.87"></path>
<circle cx="9" cy="7" r="4"></circle>
</symbol>
<symbol id="icon-time" viewBox="0 0 24 24" fill="none" stroke-width="2" stroke-linecap="round" stroke-linejoin="round">
<path d="M12 6v6l4 2"></path>
<circle cx="12" cy="12" r="10"></circle>
</symbol>
<symbol id="icon-arrow" viewBox="0 0 24 24" fill="none" stroke-width="2" stroke-linecap="round" stroke-linejoin="round">
<path d="m12 5 7 7-7 7"></path>
<path d="m12 5 7 7-7 7"></path>
</symbol>
</defs>
</svg>
